<?xml version="1.0" standalone="no"?>
<!DOCTYPE svg PUBLIC "-//W3C//DTD SVG 20010904//EN"
 "http://www.w3.org/TR/2001/REC-SVG-20010904/DTD/svg10.dtd">
<svg version="1.0" xmlns="http://www.w3.org/2000/svg"
 width="1024.000000pt" height="1024.000000pt" viewBox="0 0 1024.000000 1024.000000"
 preserveAspectRatio="xMidYMid meet">

<g transform="translate(0.000000,1024.000000) scale(0.100000,-0.100000)"
fill="#000000" stroke="none">
<path d="M0 5120 l0 -5120 5120 0 5120 0 0 5120 0 5120 -5120 0 -5120 0 0
-5120z m6484 328 c-11 -17 14 -7 32 13 50 56 163 75 241 40 53 -25 100 -88
109 -149 4 -26 8 -136 8 -244 l1 -198 -75 0 -75 0 3 162 c4 210 -1 243 -43
285 -28 28 -40 33 -79 33 -39 0 -52 -6 -83 -34 l-38 -34 -3 -204 -3 -203 -72
-3 -72 -3 -2 420 -2 420 72 3 72 3 7 -150 c3 -82 4 -153 2 -157z m-4117 268
c32 -15 69 -37 82 -49 49 -46 89 -128 105 -219 l7 -38 -104 0 -105 0 -7 38
c-15 82 -65 124 -144 124 -119 0 -180 -94 -195 -297 -6 -81 5 -211 24 -276 14
-50 49 -99 90 -127 29 -20 44 -23 93 -20 69 5 111 39 130 106 l13 43 97 2 c53
1 97 1 97 0 0 -1 -5 -26 -11 -55 -24 -111 -90 -201 -178 -242 -38 -18 -65 -21
-161 -21 -106 0 -120 2 -177 29 -150 69 -220 208 -230 456 -13 315 92 512 302
567 79 20 201 11 272 -21z m758 0 c93 -43 150 -122 157 -216 l3 -45 -93 -3
c-81 -2 -93 -1 -98 15 -19 57 -30 75 -59 93 -51 31 -100 27 -141 -14 -29 -29
-34 -41 -34 -79 0 -68 27 -92 189 -171 224 -110 266 -160 266 -316 0 -73 -4
-93 -28 -142 -46 -93 -118 -141 -237 -158 -215 -30 -381 78 -406 264 l-7 46
105 0 105 0 7 -41 c5 -28 18 -53 40 -75 31 -31 40 -34 91 -34 51 0 60 3 91 34
29 29 34 41 34 83 0 81 -21 103 -175 179 -157 78 -199 111 -240 185 -26 47
-30 64 -29 134 0 67 4 89 26 131 37 71 95 120 165 139 32 9 63 18 68 21 26 10
153 -8 200 -30z m835 -71 l0 -85 -165 0 -165 0 0 -124 0 -123 61 -7 c34 -3 98
-6 143 -6 l81 0 0 -76 0 -76 -142 1 -143 2 0 -146 0 -145 171 0 172 0 -7 -61
c-3 -34 -6 -73 -6 -85 l0 -24 -265 0 -265 0 0 520 0 520 265 0 265 0 0 -85z
m740 10 l0 -75 -140 0 -141 0 3 -97 3 -98 133 -3 132 -3 0 -71 0 -71 -135 5
-135 5 0 -168 0 -169 -75 0 -75 0 0 410 0 410 215 0 215 0 0 -75z m436 -208
l0 -72 -48 -2 c-58 -3 -98 -24 -124 -67 -17 -27 -19 -52 -18 -213 l0 -183 -75
0 -76 0 -1 300 -1 300 68 0 69 0 0 -52 0 -53 38 42 c44 51 84 73 132 73 l35 0
1 -73z m441 45 c82 -42 128 -125 140 -254 l6 -68 -206 0 -206 0 6 -32 c13 -73
53 -114 118 -125 44 -7 100 13 119 43 15 22 23 24 86 24 l69 0 -10 -29 c-16
-45 -75 -107 -125 -131 -39 -19 -57 -22 -132 -18 -127 6 -189 44 -243 148 -21
39 -24 59 -24 155 0 91 4 118 21 155 27 59 95 125 147 144 60 22 179 16 234
-12z m534 16 c19 -6 46 -20 62 -30 30 -22 67 -86 67 -118 0 -18 -6 -20 -70
-20 -63 0 -70 2 -70 19 0 28 -38 51 -85 51 -50 0 -85 -23 -85 -55 0 -37 33
-60 123 -84 156 -41 202 -84 202 -186 0 -56 -4 -68 -31 -101 -44 -55 -96 -78
-183 -83 -123 -6 -212 34 -251 113 -30 64 -29 66 50 66 65 0 71 -2 81 -24 28
-61 163 -62 191 -2 17 38 -9 70 -69 86 -163 43 -181 50 -217 90 -32 36 -36 46
-36 94 0 30 4 66 9 79 12 32 68 87 106 103 37 16 160 18 206 2z m1244 -16 c46
-23 86 -63 108 -107 17 -34 37 -132 37 -182 l0 -33 -200 0 -200 0 0 -25 c0
-58 54 -119 115 -131 44 -8 99 11 119 42 15 22 23 24 86 24 39 0 70 -2 70 -5
0 -21 -46 -89 -80 -118 -53 -45 -111 -61 -204 -55 -116 8 -188 60 -233 169
-28 68 -25 219 5 284 36 78 94 131 172 156 44 15 162 4 205 -19z m575 -45 l0
-73 -46 -2 c-59 -2 -104 -28 -126 -72 -15 -29 -18 -63 -18 -212 l0 -178 -75 0
-75 0 0 300 0 300 70 0 70 0 0 -52 0 -52 37 43 c41 48 81 70 131 71 l32 0 0
-73z m406 48 c53 -27 90 -72 100 -123 l7 -32 -72 0 c-56 0 -71 3 -71 15 0 30
-38 55 -83 55 -52 0 -87 -22 -87 -55 0 -36 34 -61 108 -80 138 -34 189 -68
212 -138 25 -78 -9 -158 -87 -204 -44 -26 -56 -28 -148 -28 -84 0 -107 3 -142
22 -49 27 -90 77 -99 121 l-6 32 70 0 c62 0 71 -2 77 -20 20 -63 171 -67 195
-5 20 52 -5 70 -145 105 -132 34 -176 78 -176 177 0 70 34 125 100 160 64 34
178 33 247 -2z m-1374 -781 c35 -18 66 -59 73 -98 11 -57 -19 -108 -113 -192
-48 -43 -88 -80 -90 -83 -1 -3 46 -6 105 -6 l108 0 3 -37 3 -38 -175 0 -176 0
0 23 c0 33 32 72 142 171 105 96 123 127 94 171 -33 50 -108 41 -129 -15 -10
-27 -16 -30 -55 -30 -40 0 -43 2 -36 23 21 70 62 112 119 125 45 10 87 5 127
-14z m892 11 c40 -8 85 -53 97 -97 18 -68 -6 -112 -112 -207 l-90 -81 111 0
110 0 0 -40 0 -40 -170 0 -170 0 0 33 c0 28 15 46 120 148 102 99 120 120 120
147 0 21 -8 37 -26 51 -45 36 -92 24 -114 -29 -11 -27 -17 -30 -56 -30 -42 0
-43 0 -34 29 18 63 55 104 110 119 33 9 47 9 104 -3z m-428 -14 c90 -55 131
-202 89 -322 -63 -179 -303 -171 -355 12 -13 44 -13 144 0 191 13 44 52 93 95
119 41 26 129 25 171 0z m944 -21 l0 -40 -95 0 c-92 0 -95 -1 -95 -22 0 -13
-3 -40 -7 -62 l-6 -38 31 16 c42 22 110 20 148 -3 60 -37 82 -133 45 -201 -29
-55 -73 -80 -143 -80 -91 0 -141 30 -162 98 -7 20 -4 22 33 22 29 0 47 -7 65
-25 53 -53 136 -17 136 58 0 66 -80 101 -128 57 -14 -13 -35 -20 -62 -20 -46
0 -45 -9 -33 173 l6 107 134 0 133 0 0 -40z"/>
<path d="M5393 5394 c-36 -18 -73 -70 -73 -103 0 -20 4 -21 125 -21 l125 0 -6
28 c-13 51 -35 84 -69 98 -44 18 -62 17 -102 -2z"/>
<path d="M7175 5391 c-43 -26 -64 -53 -71 -89 l-6 -32 127 0 127 0 -8 32 c-10
47 -34 79 -71 94 -43 18 -62 18 -98 -5z"/>
<path d="M7275 4618 c-51 -45 -56 -182 -8 -239 20 -23 33 -29 65 -29 78 0 108
40 108 145 0 71 -17 117 -49 135 -34 17 -88 12 -116 -12z"/>
</g>
</svg>
